<?xml version="1.0" encoding="utf-8"?>
<!-- Generator: Adobe Illustrator 17.1.0, SVG Export Plug-In . SVG Version: 6.00 Build 0)  -->
<!DOCTYPE svg PUBLIC "-//W3C//DTD SVG 1.1//EN" "http://www.w3.org/Graphics/SVG/1.1/DTD/svg11.dtd">
<svg version="1.1" id="Layer_1" xmlns="http://www.w3.org/2000/svg" xmlns:xlink="http://www.w3.org/1999/xlink" x="0px" y="0px"
	 viewBox="0 0 210.3 60.6" enable-background="new 0 0 210.3 60.6" xml:space="preserve">
<path fill="#27AAE1" d="M12.2,0.1H0v42.2h13.8v17.5C31.7,59,44,46.3,44,29.9v-0.2C44,12.9,31,0.1,12.2,0.1z"/>
<g>
	<g>
		<path fill="#929EA3" d="M81.3,39c-2.1,2.2-5.1,3.3-8.9,3.3H62.2V18.2h10.3c3.8,0,6.8,1.1,8.9,3.2c2.1,2.2,3.1,5.1,3.1,8.7
			C84.4,33.8,83.4,36.8,81.3,39z M76.9,35.3c1.1-1.2,1.6-3,1.6-5.1c0-2.1-0.5-3.8-1.5-5c-1-1.2-2.5-1.8-4.5-1.8H68v13.8h4.5
			C74.4,37.2,75.9,36.6,76.9,35.3L76.9,35.3L76.9,35.3z"/>
		<path fill="#929EA3" d="M105.5,32.6c0,0.4,0,0.8-0.1,1.3H91.6c0.1,1.3,0.6,2.3,1.4,3c0.9,0.7,2,1.1,3.3,1.1c2,0,3.7-0.7,5.3-2.2
			l3.7,3.2c-2.6,2.4-5.7,3.7-9.3,3.7c-3.2,0-5.7-1-7.6-2.8c-1.8-1.9-2.7-4.3-2.7-7.3c0-2.9,0.9-5.4,2.7-7.2c1.8-1.9,4.3-2.9,7.3-2.9
			c3.1,0,5.6,0.9,7.3,2.7C104.7,27.1,105.6,29.5,105.5,32.6L105.5,32.6z M91.6,30.5h8.5c-0.1-1.2-0.5-2.1-1.3-2.8
			c-0.7-0.7-1.7-1-3-1c-1.2,0-2.1,0.4-2.9,1C92.2,28.4,91.7,29.3,91.6,30.5L91.6,30.5L91.6,30.5z"/>
		<path fill="#929EA3" d="M137.4,42.3h-5.5V30.8c0-2.2-1-3.3-3-3.3c-1,0-1.9,0.4-2.5,1.1c-0.6,0.7-0.9,1.7-0.9,3v10.8h-5.5V30.8
			c0-2.2-1-3.3-3-3.3c-1,0-1.8,0.4-2.5,1.1c-0.6,0.7-0.9,1.7-0.9,3v10.8h-5.5V23h5.5v2.2c1.5-1.7,3.3-2.6,5.6-2.6
			c2.6,0,4.4,1.1,5.4,3.2c1.7-2.1,3.8-3.2,6.4-3.2c2.1,0,3.7,0.6,4.8,1.9c1.1,1.3,1.6,3,1.6,5L137.4,42.3L137.4,42.3L137.4,42.3z"/>
		<path fill="#929EA3" d="M166.2,31.3v11h-5.5V23h5.5v2.2c1.5-1.7,3.5-2.6,5.7-2.6c2.1,0,3.8,0.7,4.9,2c1.1,1.3,1.7,3,1.7,5v12.8
			h-5.5V30.8c0-2.2-1-3.3-3.1-3.3c-1,0-1.9,0.4-2.6,1C166.5,29.2,166.2,30.1,166.2,31.3L166.2,31.3L166.2,31.3z"/>
		<path fill="#929EA3" d="M200.8,16.5v25.7h-5.5v-2.2c-1.6,1.8-3.6,2.6-5.9,2.6c-2.6,0-4.8-1-6.3-2.9c-1.6-1.9-2.4-4.3-2.4-7.2
			c0-2.9,0.8-5.4,2.4-7.2c1.6-1.9,3.7-2.8,6.3-2.8c2.4,0,4.3,0.9,5.9,2.6v-8.7L200.8,16.5L200.8,16.5z M195.3,32.7
			c0-1.5-0.4-2.8-1.2-3.8c-0.8-1-1.9-1.5-3.4-1.5c-1.4,0-2.5,0.5-3.2,1.5c-0.7,1-1.1,2.3-1.1,3.8c0,1.5,0.4,2.8,1.1,3.8
			c0.7,1,1.8,1.5,3.2,1.5c1.4,0,2.6-0.5,3.4-1.5C194.9,35.5,195.3,34.3,195.3,32.7L195.3,32.7L195.3,32.7z"/>
		<path fill="#929EA3" d="M158.8,38.6c-0.2,0.1-0.4,0.1-0.7,0.1c-0.7,0-1-0.4-1-1.2v-8.2c0-4.5-2.7-6.7-8.1-6.7
			c-3.4,0-6.2,0.7-8.5,2.1l1.8,4.2c1.9-1.2,3.9-1.8,6-1.8c2.1,0,3.1,0.6,3.1,1.8c0,0.4-0.1,0.7-0.4,0.9c-0.2,0.2-0.6,0.4-1,0.5
			c-0.4,0.1-0.9,0.2-1.5,0.4c-0.6,0.1-1.2,0.2-1.9,0.2c-0.8,0.1-1.5,0.2-1.9,0.3c-0.5,0.1-1.1,0.3-1.8,0.5c-0.7,0.3-1.3,0.6-1.8,1
			c-0.4,0.4-0.8,0.9-1.1,1.6c-0.3,0.7-0.5,1.5-0.5,2.4c0,1.8,0.6,3.3,1.8,4.4c1.2,1.1,2.8,1.6,4.7,1.6c2.9,0,4.9-0.9,6.2-2.6
			c0.6,1.7,1.9,2.5,4.1,2.5c0.9,0,1.6-0.1,2.2-0.3V38.6z M151.5,35.2c0,1.2-0.3,2-1,2.6c-0.7,0.6-1.5,0.9-2.7,0.9
			c-0.7,0-1.4-0.2-1.8-0.6c-0.5-0.4-0.7-1-0.7-1.7c0-0.7,0.2-1.3,0.7-1.7c0.5-0.4,1.1-0.6,2-0.7l1.6-0.2c0.3,0,0.6-0.2,1-0.4
			c0.4-0.2,0.7-0.4,0.9-0.6L151.5,35.2L151.5,35.2L151.5,35.2z"/>
	</g>
</g>
</svg>
